<svg width="115" height="23" viewBox="0 0 115 23" fill="none" xmlns="http://www.w3.org/2000/svg">
<path d="M17.6138 5.03955V6.99707H13.0122V18H10.5073V6.99707H5.90576V5.03955H17.6138ZM21.4268 9.16797C22.3298 9.16797 23.1493 9.35661 23.8853 9.73389C24.6213 10.1112 25.1903 10.64 25.5923 11.3203C25.9943 12.0007 26.1953 12.7707 26.1953 13.6304C26.1953 14.5272 26.0005 15.3127 25.6108 15.9868C25.2274 16.661 24.6584 17.1929 23.9038 17.5825C23.1554 17.9722 22.3298 18.167 21.4268 18.167C20.5176 18.167 19.6919 17.9722 18.9497 17.5825C18.2075 17.1929 17.6416 16.661 17.252 15.9868C16.8685 15.3127 16.6768 14.5272 16.6768 13.6304C16.6768 12.7583 16.8809 11.9852 17.2891 11.311C17.6973 10.6307 18.2663 10.105 18.9961 9.73389C19.7259 9.35661 20.5361 9.16797 21.4268 9.16797ZM19.0703 13.6304C19.0703 14.4963 19.2806 15.189 19.7012 15.7085C20.1279 16.2218 20.6969 16.4785 21.4082 16.4785C22.1504 16.4785 22.7349 16.2311 23.1616 15.7363C23.5884 15.2415 23.8018 14.5334 23.8018 13.6118C23.8018 12.7336 23.5853 12.0563 23.1523 11.5801C22.7256 11.0977 22.1442 10.8564 21.4082 10.8564C20.7155 10.8564 20.1527 11.11 19.7197 11.6172C19.2868 12.1243 19.0703 12.7954 19.0703 13.6304ZM33.877 9.52979V5.03955H36.1499V18H32.1421C30.7567 18 29.6465 17.6011 28.8115 16.8032C27.9827 16.0054 27.5684 14.9168 27.5684 13.5376C27.5684 12.7212 27.7601 11.979 28.1436 11.311C28.5332 10.6431 29.0651 10.1204 29.7393 9.74316C30.4196 9.3597 31.1525 9.16797 31.938 9.16797C32.5441 9.16797 33.1904 9.28857 33.877 9.52979ZM32.6802 16.2559H33.877V11.2368C33.4069 10.9956 32.9183 10.875 32.4111 10.875C31.6504 10.875 31.0412 11.1131 30.5835 11.5894C30.132 12.0656 29.9062 12.6903 29.9062 13.4634C29.9062 15.325 30.8309 16.2559 32.6802 16.2559ZM41.5493 9.16797C42.6626 9.16797 43.513 9.40609 44.1006 9.88232C44.6882 10.3524 44.9819 11.0111 44.9819 11.8584V16.0981C44.9819 16.4259 45.1149 16.5898 45.3809 16.5898C45.4922 16.5898 45.6468 16.5435 45.8447 16.4507C46.0488 16.3517 46.2189 16.2404 46.355 16.1167V17.4341C45.5571 17.9227 44.8273 18.167 44.1655 18.167C43.7573 18.167 43.4419 18.099 43.2192 17.9629C43.0028 17.8268 42.8512 17.5856 42.7646 17.2393C41.8926 17.8577 41.0174 18.167 40.1392 18.167C39.5145 18.167 38.9764 17.9567 38.5249 17.5361C38.0796 17.1156 37.8569 16.6115 37.8569 16.0239C37.8569 15.2756 38.0796 14.6849 38.5249 14.252C38.9702 13.819 39.7495 13.4417 40.8628 13.1201L42.709 12.582V12.1831C42.709 11.3358 42.1956 10.9121 41.1689 10.9121C40.6432 10.9121 40.1206 11.0327 39.6011 11.2739C39.0815 11.5151 38.6084 11.8708 38.1816 12.3408V10.2905C39.1279 9.54215 40.2505 9.16797 41.5493 9.16797ZM40.1577 15.6807C40.1577 15.9961 40.2567 16.2497 40.4546 16.4414C40.6587 16.6331 40.9092 16.729 41.2061 16.729C41.707 16.729 42.208 16.5002 42.709 16.0425V13.7603C42.0719 13.9767 41.571 14.1808 41.2061 14.3726C40.8473 14.5643 40.5814 14.7591 40.4082 14.957C40.2412 15.1549 40.1577 15.3962 40.1577 15.6807ZM48.9619 9.33496L51.0122 13.9922L53.0903 9.33496H55.5396L49.5557 22.3696H47.1064L49.8618 16.4043L46.4941 9.33496H48.9619Z" fill="black"/>
<path d="M57.501 5.03955H61.0728C62.4396 5.03955 63.4849 5.3457 64.2085 5.95801C64.9383 6.57031 65.3032 7.40527 65.3032 8.46289C65.3032 9.53288 64.9352 10.3802 64.1992 11.0049C63.4694 11.6296 62.3963 11.9419 60.98 11.9419H58.5029V18H57.501V5.03955ZM58.5029 5.87451V11.1069H60.915C61.9974 11.1069 62.82 10.8781 63.3828 10.4204C63.9456 9.96273 64.2271 9.31641 64.2271 8.48145C64.2271 7.68359 63.9518 7.04964 63.4014 6.57959C62.8509 6.10954 62.0623 5.87451 61.0356 5.87451H58.5029ZM72.79 10.3091L72.2612 11.1626C71.55 10.5132 70.9779 10.1885 70.5449 10.1885C69.6914 10.1885 68.7791 11.0049 67.8081 12.6377V18H66.8989V9.46484H67.8081V11.71H67.8452C68.8657 10.1019 69.8615 9.29785 70.8325 9.29785C71.3892 9.29785 72.0417 9.63493 72.79 10.3091ZM77.1782 9.29785C78.4152 9.29785 79.445 9.72152 80.2676 10.5688C81.0964 11.4162 81.5107 12.4738 81.5107 13.7417C81.5107 15.0034 81.0964 16.0579 80.2676 16.9053C79.445 17.7464 78.4152 18.167 77.1782 18.167C75.9412 18.167 74.9053 17.7464 74.0703 16.9053C73.2415 16.0579 72.8271 15.0034 72.8271 13.7417C72.8271 12.4738 73.2415 11.4162 74.0703 10.5688C74.9053 9.72152 75.9412 9.29785 77.1782 9.29785ZM77.1782 17.2764C78.1369 17.2764 78.9378 16.9424 79.5811 16.2744C80.2243 15.6003 80.5459 14.756 80.5459 13.7417C80.5459 12.7336 80.2212 11.8893 79.5718 11.209C78.9285 10.5286 78.1307 10.1885 77.1782 10.1885C76.2134 10.1885 75.4062 10.5256 74.7568 11.1997C74.1136 11.8739 73.792 12.7212 73.792 13.7417C73.792 14.756 74.1136 15.6003 74.7568 16.2744C75.4062 16.9424 76.2134 17.2764 77.1782 17.2764ZM90.8623 5.03955V18H89.9438V17.332C89.1646 17.8887 88.3234 18.167 87.4204 18.167C86.2082 18.167 85.1846 17.7402 84.3496 16.8867C83.5208 16.027 83.1064 14.9725 83.1064 13.7231C83.1064 12.4552 83.5146 11.4007 84.3311 10.5596C85.1536 9.71842 86.1834 9.29785 87.4204 9.29785C88.2059 9.29785 89.047 9.52669 89.9438 9.98438V5.03955H90.8623ZM89.9438 16.4971V10.9863C89.1274 10.4544 88.2987 10.1885 87.4575 10.1885C86.4741 10.1885 85.6639 10.5163 85.0269 11.1719C84.3898 11.8213 84.0713 12.6532 84.0713 13.6675C84.0713 14.7004 84.4115 15.5601 85.0918 16.2466C85.7721 16.9331 86.6226 17.2764 87.6431 17.2764C88.4347 17.2764 89.2017 17.0166 89.9438 16.4971ZM99.2119 18V16.5898H99.1748C98.779 17.1589 98.3708 17.564 97.9502 17.8052C97.5358 18.0464 97.007 18.167 96.3638 18.167C95.4484 18.167 94.6908 17.8701 94.0908 17.2764C93.4909 16.6826 93.1909 15.8415 93.1909 14.7529V9.46484H94.1001V14.7344C94.1001 15.526 94.3166 16.1476 94.7495 16.5991C95.1825 17.0506 95.7453 17.2764 96.438 17.2764C97.0317 17.2764 97.5358 17.1403 97.9502 16.8682C98.3708 16.596 98.7913 16.126 99.2119 15.458V9.46484H100.121V18H99.2119ZM108.526 9.71533V10.7266C107.71 10.3678 106.971 10.1885 106.309 10.1885C105.357 10.1885 104.58 10.5194 103.98 11.1812C103.387 11.8429 103.09 12.7026 103.09 13.7603C103.09 14.8364 103.387 15.693 103.98 16.3301C104.58 16.9609 105.381 17.2764 106.383 17.2764C107.113 17.2764 107.88 17.1125 108.684 16.7847V17.731C107.831 18.0216 107.039 18.167 106.309 18.167C105.06 18.167 104.049 17.7712 103.275 16.9795C102.508 16.1878 102.125 15.1488 102.125 13.8623C102.125 12.5202 102.512 11.4255 103.285 10.5781C104.064 9.72461 105.057 9.29785 106.263 9.29785C106.924 9.29785 107.679 9.43701 108.526 9.71533ZM112.098 6.63525V9.46484H114.492V10.207H112.098V15.2817C112.098 16.0981 112.163 16.6362 112.293 16.896C112.429 17.1496 112.788 17.2764 113.369 17.2764C113.814 17.2764 114.334 17.1372 114.928 16.8589V17.731C114.328 18.0216 113.74 18.167 113.165 18.167C112.602 18.167 112.132 18.0062 111.755 17.6846C111.378 17.363 111.189 16.9176 111.189 16.3486V10.207H108.888V9.46484H111.189V7.43311L111.811 6.63525H112.098Z" fill="black"/>
<path d="M10 13C10 11.8432 9.5989 10.7222 8.86505 9.82803C8.1312 8.93383 7.11 8.32175 5.97545 8.09607C4.8409 7.8704 3.6632 8.04509 2.64302 8.59039C1.62283 9.13569 0.823282 10.0179 0.380602 11.0866C-0.0620768 12.1553 -0.120496 13.3445 0.215298 14.4514C0.551093 15.5584 1.26032 16.5147 2.22215 17.1573C3.18397 17.8 4.33888 18.0893 5.49009 17.9759C6.64129 17.8625 7.71757 17.3535 8.53553 16.5355L5 13H10Z" fill="url(#paint0_linear_3_13)"/>
<defs>
<linearGradient id="paint0_linear_3_13" x1="2.22193e-07" y1="13.3333" x2="10" y2="13.3333" gradientUnits="userSpaceOnUse">
<stop stop-color="#F63F50"/>
<stop offset="1" stop-color="#F87981"/>
</linearGradient>
</defs>
</svg>
